<svg width="645" height="434" viewBox="0 0 645 434" fill="none" xmlns="http://www.w3.org/2000/svg">
<path d="M84.9926 389.231C9.82283 372.499 -33.4522 239.361 32.2656 199.209C72.5991 174.566 112.544 233.872 152.877 209.228C208.486 175.25 123.943 93.5266 164.835 42.7831C210.261 -13.5875 274.002 0.394645 346.263 4.73869C476.148 12.5468 704.802 73.6747 629.677 179.926C603.656 216.728 550.532 203.165 534.578 245.319C518.173 288.663 575.64 314.616 565.602 359.859C546.46 446.14 432.501 442.276 347.207 419.152C284.376 402.117 279.189 320.92 214.124 318.767C156.709 316.867 141.066 401.712 84.9926 389.231Z" fill="#363636"/>
</svg>
